<svg xmlns="http://www.w3.org/2000/svg" version="1.1" xmlns:xlink="http://www.w3.org/1999/xlink" xmlns:svgjs="http://svgjs.dev/svgjs" width="1500" height="1500" viewBox="0 0 1500 1500"><rect width="1500" height="1500" fill="#000000"></rect><g transform="matrix(0.6666666666666666,0,0,0.6666666666666666,249.39393939393943,683.4277269804865)"><svg viewBox="0 0 396 53" data-background-color="#ffffff" preserveAspectRatio="xMidYMid meet" height="200" width="1500" xmlns="http://www.w3.org/2000/svg" xmlns:xlink="http://www.w3.org/1999/xlink"><g id="tight-bounds" transform="matrix(1,0,0,1,0.2400000000000091,-0.03752147474332901)"><svg viewBox="0 0 395.52 53.07504294948664" height="53.07504294948664" width="395.52"><g><svg viewBox="0 0 624.4911087032965 83.80079999999998" height="53.07504294948664" width="395.52"><g><rect width="7.519644404403581" height="83.80079999999998" x="201.76653130307213" y="0" fill="#ffffff" opacity="1" stroke-width="0" stroke="transparent" fill-opacity="1" class="rect-qz-0" data-fill-palette-color="primary" rx="1%" id="qz-0" data-palette-color="#fa4802"></rect></g><g transform="matrix(1,0,0,1,228.9711087032966,0.20845970149252935)"><svg viewBox="0 0 395.52 83.38388059701492" height="83.38388059701492" width="395.52"><g id="textblocktransform"><svg viewBox="0 0 395.52 83.38388059701492" height="83.38388059701492" width="395.52" id="textblock"><g><svg viewBox="0 0 395.52 83.38388059701492" height="83.38388059701492" width="395.52"><g transform="matrix(1,0,0,1,0,0)"><svg width="395.52" viewBox="1.95 -32.74 157.02 33.11" height="83.38388059701492" data-palette-color="#fa4802"><path d="M16.24 0.37Q8.91 0.37 5.43-3.44 1.95-7.25 1.95-15.28L1.95-15.28Q1.95-30.74 16.46-30.74L16.46-30.74Q18.43-30.74 20.56-30.35 22.68-29.96 24.11-29.26 25.54-28.56 25.54-27.71L25.54-27.71Q25.54-27.1 25.05-26.11 24.56-25.12 23.89-24.37 23.22-23.61 22.71-23.61L22.71-23.61Q22.58-23.61 22.05-23.85L22.05-23.85Q20.87-24.34 19.59-24.67 18.31-25 16.33-25L16.33-25Q12.5-25 10.66-22.57 8.81-20.14 8.81-15.23L8.81-15.23Q8.81-10.33 10.67-7.84 12.52-5.35 16.24-5.35L16.24-5.35Q18.16-5.35 19.59-5.74 21.02-6.13 22.39-6.74L22.39-6.74Q22.46-6.76 22.83-6.92 23.19-7.08 23.36-7.08L23.36-7.08Q24-7.08 24.58-6.34 25.17-5.59 25.54-4.65 25.9-3.71 25.9-3.3L25.9-3.3Q25.9-2.1 24.3-1.27 22.71-0.44 20.45-0.04 18.19 0.37 16.24 0.37L16.24 0.37ZM35.96 0.37Q32.86 0.37 31.24-1.38 29.61-3.13 29.61-6.69L29.61-6.69 29.61-31.32Q29.61-32.74 32.22-32.74L32.22-32.74 33.44-32.74Q34.79-32.74 35.41-32.39 36.03-32.03 36.03-31.32L36.03-31.32 36.03-6.62Q36.03-5.62 36.4-5.18 36.77-4.74 37.62-4.74L37.62-4.74Q37.84-4.74 38.28-4.83L38.28-4.83Q38.4-4.86 38.52-4.88 38.64-4.91 38.79-4.91L38.79-4.91Q39.16-4.91 39.46-4.26 39.77-3.61 39.94-2.82 40.11-2.03 40.11-1.78L40.11-1.78Q40.11 0.37 35.96 0.37L35.96 0.37ZM52.17 0.37Q47.02 0.37 44.32-2.66 41.62-5.69 41.62-11.38L41.62-11.38Q41.62-17.04 44.32-20.04 47.02-23.05 52.17-23.05L52.17-23.05Q57.32-23.05 59.99-20.06 62.67-17.07 62.67-11.38L62.67-11.38Q62.67-5.69 59.99-2.66 57.32 0.37 52.17 0.37L52.17 0.37ZM52.17-4.74Q54.22-4.74 55.18-6.4 56.15-8.06 56.15-11.38L56.15-11.38Q56.15-14.67 55.18-16.33 54.22-17.99 52.17-17.99L52.17-17.99Q48.12-17.99 48.12-11.38L48.12-11.38Q48.12-8.08 49.1-6.41 50.09-4.74 52.17-4.74L52.17-4.74ZM73.45 0.37Q70.18 0.37 68.62-1.35 67.06-3.08 67.06-6.69L67.06-6.69 67.06-21.41Q67.06-22.09 67.69-22.44 68.33-22.78 69.67-22.78L69.67-22.78 70.87-22.78Q72.21-22.78 72.84-22.44 73.48-22.09 73.48-21.41L73.48-21.41 73.48-7.67Q73.48-6.32 74.09-5.64 74.7-4.96 76.09-4.96L76.09-4.96Q77.29-4.96 78.18-5.73 79.07-6.49 79.56-7.47L79.56-7.47 79.56-21.41Q79.56-22.09 80.19-22.44 80.83-22.78 82.17-22.78L82.17-22.78 83.37-22.78Q84.71-22.78 85.34-22.44 85.98-22.09 85.98-21.41L85.98-21.41 85.98-7.67Q85.98-5.62 86.09-4.46 86.2-3.3 86.37-2.29L86.37-2.29Q86.49-1.64 86.49-1.37L86.49-1.37Q86.49-0.88 85.59-0.56 84.68-0.24 83.53-0.1 82.37 0.05 81.66 0.05L81.66 0.05Q80.88 0.05 80.55-0.57 80.22-1.2 80.02-2.34L80.02-2.34 79.9-2.95Q78.87-1.56 77.15-0.6 75.43 0.37 73.45 0.37L73.45 0.37ZM98.62 0.37Q96.25 0.37 94.41-1.01 92.57-2.39 91.53-5.04 90.49-7.69 90.49-11.38L90.49-11.38Q90.49-14.92 91.57-17.55 92.64-20.19 94.7-21.62 96.77-23.05 99.65-23.05L99.65-23.05Q102.24-23.05 104.07-21.7L104.07-21.7 104.07-31.32Q104.07-32.74 106.68-32.74L106.68-32.74 107.9-32.74Q109.24-32.74 109.87-32.39 110.49-32.03 110.49-31.32L110.49-31.32 110.49-7.67Q110.49-5.64 110.6-4.52 110.71-3.39 110.9-2.29L110.9-2.29Q111.03-1.64 111.03-1.37L111.03-1.37Q111.03-0.88 110.11-0.56 109.19-0.24 108.03-0.1 106.87 0.05 106.17 0.05L106.17 0.05Q105.41 0.05 105.1-0.54 104.8-1.12 104.56-2.25L104.56-2.25 104.41-2.91Q103.63-1.46 102.09-0.55 100.55 0.37 98.62 0.37L98.62 0.37ZM100.53-4.91Q102.58-4.91 104.07-7.47L104.07-7.47 104.07-17.16Q102.53-17.99 101.04-17.99L101.04-17.99Q96.99-17.99 96.99-11.38L96.99-11.38Q96.99-4.91 100.53-4.91L100.53-4.91ZM126.35 0.37Q120.64 0.37 117.83-2.7 115.03-5.76 115.03-11.21L115.03-11.21Q115.03-17.33 117.83-20.19 120.64-23.05 125.57-23.05L125.57-23.05Q128.84-23.05 130.93-21.56 133.02-20.07 133.98-17.55 134.95-15.04 134.95-11.87L134.95-11.87Q134.95-11.5 134.52-10.89 134.09-10.28 133.56-9.79 133.02-9.3 132.73-9.3L132.73-9.3 121.67-9.3Q121.89-6.81 123.14-5.77 124.4-4.74 126.65-4.74L126.65-4.74Q127.87-4.74 128.86-5.02 129.85-5.3 130.97-5.76L130.97-5.76Q131.65-6.08 131.9-6.08L131.9-6.08Q132.34-6.08 132.86-5.46 133.39-4.83 133.76-4.03 134.14-3.22 134.14-2.78L134.14-2.78Q134.14-1.78 132.79-1.07 131.43-0.37 129.59 0 127.75 0.37 126.35 0.37L126.35 0.37ZM121.67-13.57L128.7-13.57Q128.7-15.58 127.92-16.78 127.14-17.99 125.57-17.99L125.57-17.99Q122.35-17.99 121.67-13.57L121.67-13.57ZM146.57 0.37Q144.2 0.37 142.36-1.01 140.51-2.39 139.47-5.04 138.44-7.69 138.44-11.38L138.44-11.38Q138.44-14.92 139.51-17.55 140.59-20.19 142.65-21.62 144.71-23.05 147.59-23.05L147.59-23.05Q150.18-23.05 152.01-21.7L152.01-21.7 152.01-31.32Q152.01-32.74 154.62-32.74L154.62-32.74 155.84-32.74Q157.19-32.74 157.81-32.39 158.43-32.03 158.43-31.32L158.43-31.32 158.43-7.67Q158.43-5.64 158.54-4.52 158.65-3.39 158.85-2.29L158.85-2.29Q158.97-1.64 158.97-1.37L158.97-1.37Q158.97-0.88 158.05-0.56 157.14-0.24 155.98-0.1 154.82 0.05 154.11 0.05L154.11 0.05Q153.35 0.05 153.05-0.54 152.74-1.12 152.5-2.25L152.5-2.25 152.35-2.91Q151.57-1.46 150.03-0.55 148.5 0.37 146.57 0.37L146.57 0.37ZM148.47-4.91Q150.52-4.91 152.01-7.47L152.01-7.47 152.01-17.16Q150.47-17.99 148.98-17.99L148.98-17.99Q144.93-17.99 144.93-11.38L144.93-11.38Q144.93-4.91 148.47-4.91L148.47-4.91Z" opacity="1" transform="matrix(1,0,0,1,0,0)" fill="#ffffff" class="wordmark-text-0" data-fill-palette-color="primary" id="text-0"></path></svg></g></svg></g></svg></g></svg></g><g transform="matrix(1,0,0,1,0,0.20845970149252935)"><svg viewBox="0 0 182.08159830725123 83.38388059701492" height="83.38388059701492" width="182.08159830725123"><g><svg xmlns="http://www.w3.org/2000/svg" xmlns:xlink="http://www.w3.org/1999/xlink" version="1.1" x="0" y="0" viewBox="1 27.277 97.06999999999998 44.45299999999999" enable-background="new 0 0 100 100" xml:space="preserve" height="83.38388059701492" width="182.08159830725123" class="icon-icon-0" data-fill-palette-color="accent" id="icon-0"><g fill="#3bbbff" data-fill-palette-color="accent"><path fill-rule="evenodd" clip-rule="evenodd" fill="#ffffff" d="M36.748 68.037c-3.109 0-5.631-2.889-5.631-6.441 0-2.373 1.148-4.537 2.928-5.652 0.791-4.125 3.858-7.2 7.543-7.571-0.014-0.294-0.021-0.577-0.021-0.868 0-7.144 4.363-13.14 10.19-14.716-0.693-3.165-3.194-5.512-6.171-5.512-2.935 0-5.4 2.263-6.143 5.337-2.577-2.178-5.757-3.47-9.217-3.47-8.566 0-15.514 7.943-15.514 17.751 0 1.1 0.098 2.186 0.266 3.236-0.35-0.042-0.714-0.06-1.078-0.06-4.749 0-8.671 4.073-9.238 9.333C2.526 60.293 1 62.627 1 65.371c0 3.51 2.493 6.359 5.554 6.359h76.757c2.228 0 4.146-1.52 5.029-3.693H36.748z" data-fill-palette-color="accent"></path><path fill-rule="evenodd" clip-rule="evenodd" fill="#ffffff" d="M95.238 58.367h-2.144v-1.604c0-2.633-1.778-4.672-3.957-4.672-0.343 0-0.687 0.057-1.022 0.162l-1.842 0.545 0.084-2.17c0.007-0.183 0.014-0.371 0.014-0.557 0-5.943-4.23-10.783-9.427-10.783-1.786 0-3.523 0.574-5.029 1.66l-3.04 2.203 0.946-3.976c0.076-0.343 0.119-0.7 0.119-1.061 0-2.182-1.549-3.954-3.453-3.954-1.548 0-2.921 1.19-3.327 2.89l-0.546 2.248-1.633-1.384c-1.806-1.52-3.95-2.328-6.198-2.328-5.743 0-10.422 5.348-10.422 11.917 0 0.742 0.063 1.478 0.175 2.186l0.351 2.136-1.892-0.256c-0.21-0.025-0.434-0.039-0.65-0.039-2.872 0-5.31 2.451-5.652 5.715l-0.105 0.975-0.812 0.336c-1.113 0.459-1.87 1.682-1.87 3.047 0 1.785 1.274 3.242 2.844 3.242h58.49c1.562 0 2.83-1.457 2.83-3.242S96.8 58.367 95.238 58.367z" data-fill-palette-color="accent"></path></g></svg></g></svg></g></svg></g><defs></defs></svg><rect width="395.52" height="53.07504294948664" fill="none" stroke="none" visibility="hidden"></rect></g></svg></g></svg>